<svg width="504" height="211" xmlns="http://www.w3.org/2000/svg">
 <!-- Created with Method Draw - http://github.com/duopixel/Method-Draw/ -->

 <g>
  <title>background</title>
  <rect fill="none" id="canvas_background" height="213" width="506" y="-1" x="-1"/>
  <g display="none" overflow="visible" y="0" x="0" height="100%" width="100%" id="canvasGrid">
   <rect fill="url(#gridpattern)" stroke-width="0" y="0" x="0" height="100%" width="100%"/>
  </g>
 </g>
 <g>
  <title>Layer 1</title>
  <style transform="matrix(0.11287252634390033,0,0,0.11287252634390033,0,0) " type="text/css">.st0{fill:#00A651;}</style>
  <g stroke="null" id="svg_32">
   <g stroke="null" transform="matrix(1.0358250061565901,0,0,1.690648099162288,-1621.653896855175,-1453.2167118014115) " id="svg_5">
    <polygon stroke="null" id="svg_6" points="1767.25390625,958.6359076499939 1763.053955078125,958.6359076499939 1759.25390625,965.5358099937439 1756.75390625,965.5358099937439 1756.75390625,958.6359076499939 1752.85400390625,958.6359076499939 1752.85400390625,965.5358099937439 1750.25390625,965.5358099937439 1746.453857421875,958.6359076499939 1742.35400390625,958.6359076499939 1747.053955078125,966.7360053062439 1741.953857421875,975.6359076499939 1746.553955078125,975.6359076499939 1750.35400390625,968.7360053062439 1752.85400390625,968.7360053062439 1752.85400390625,975.6359076499939 1756.75390625,975.6359076499939 1756.75390625,968.7360053062439 1759.25390625,968.7360053062439 1763.053955078125,975.6359076499939 1767.553955078125,975.6359076499939 1762.453857421875,966.7360053062439 " class="st0"/>
    <path stroke="null" id="svg_7" d="m1724.35383,957.53586c3.2,0 4.7,-1.3 4.7,-3.7l-2.7,0c0,1.2 -0.7,1.8 -2,1.8c-1.3,0 -2,-0.6 -2,-1.8l-2.7,0c0,2.4 1.5,3.7 4.7,3.7z" class="st0"/>
    <polygon stroke="null" id="svg_8" points="1773.65380859375,969.7360053062439 1773.65380859375,958.6359076499939 1769.65380859375,958.6359076499939 1769.65380859375,975.6359076499939 1773.453857421875,975.6359076499939 1781.553955078125,964.5358099937439 1781.553955078125,975.6359076499939 1785.453857421875,975.6359076499939 1785.453857421875,958.6359076499939 1781.75390625,958.6359076499939 " class="st0"/>
    <path stroke="null" id="svg_9" d="m1626.85383,958.63586l-7.6,17l4,0l1.5,-3.6l7.9,0l1.5,3.6l4.1,0l-7.6,-17l-3.8,0zm-0.8,10.4l2.7,-6.5l2.7,6.5l-5.4,0z" class="st0"/>
    <path stroke="null" id="svg_10" d="m1614.65383,966.73586c1.5,-0.7 2.5,-2 2.5,-3.6c0,-3.1 -3.4,-4.9 -7.3,-4.9c-1.9,0 -4,0.4 -5.8,1.4l1.2,3.1c1.5,-0.8 3.1,-1.2 4.6,-1.2c1.9,0 3.4,0.7 3.4,2.1c0,1.1 -0.9,1.8 -2.5,1.8l-4,0l0,3l4.2,0c1.8,0 2.9,0.6 2.9,1.9c0,1.6 -1.8,2.4 -4.1,2.4c-1.7,0 -3.5,-0.4 -5.1,-1.4l-1.2,2.8c2.1,1.2 4.5,1.8 6.8,1.8c4.1,0 7.6,-1.8 7.6,-5.1c0,-1.9 -1.2,-3.4 -3.2,-4.1z" class="st0"/>
    <path stroke="null" id="svg_11" d="m1591.05383,958.63586l-7.5,16.8l-5.6,-8.6l5.6,-8.2l-4.2,0l-4.5,6.9l-2.8,0l0,-6.9l-3.9,0l0,17l3.9,0l0,-6.8l2.7,0l4.4,6.8l4.3,0l0.2,0l3.9,0l1.5,-3.6l7.9,0l1.5,3.6l4.1,0l-7.6,-17l-3.9,0zm-0.8,10.4l2.7,-6.5l2.7,6.5l-5.4,0z" class="st0"/>
    <polygon stroke="null" id="svg_12" points="1694.053955078125,958.6359076499939 1689.953857421875,958.6359076499939 1685.453857421875,965.5358099937439 1682.65380859375,965.5358099937439 1682.65380859375,958.6359076499939 1678.75390625,958.6359076499939 1678.75390625,975.6359076499939 1682.65380859375,975.6359076499939 1682.65380859375,968.7360053062439 1685.35400390625,968.7360053062439 1689.75390625,975.6359076499939 1694.25390625,975.6359076499939 1688.453857421875,966.8358588218689 " class="st0"/>
    <polygon stroke="null" id="svg_13" points="1700.25390625,969.7360053062439 1700.25390625,958.6359076499939 1696.35400390625,958.6359076499939 1696.35400390625,975.6359076499939 1700.053955078125,975.6359076499939 1708.15380859375,964.5358099937439 1708.15380859375,975.6359076499939 1712.053955078125,975.6359076499939 1712.053955078125,958.6359076499939 1708.35400390625,958.6359076499939 " class="st0"/>
    <path stroke="null" id="svg_14" d="m1669.15383,961.63586c1.7,0 3.1,0.7 4.3,2l2.5,-2.3c-1.6,-1.9 -4.1,-3 -7,-3c-5.3,0 -9.2,3.7 -9.2,8.8c0,5.1 3.9,8.8 9.2,8.8c3,0 5.4,-1.1 7,-3l-2.5,-2.3c-1.1,1.3 -2.6,2 -4.3,2c-3.2,0 -5.4,-2.2 -5.4,-5.4c0,-3.3 2.2,-5.6 5.4,-5.6z" class="st0"/>
    <polygon stroke="null" id="svg_15" points="1720.453857421875,969.7360053062439 1720.453857421875,958.6359076499939 1716.453857421875,958.6359076499939 1716.453857421875,975.6359076499939 1720.25390625,975.6359076499939 1728.35400390625,964.5358099937439 1728.35400390625,975.6359076499939 1732.25390625,975.6359076499939 1732.25390625,958.6359076499939 1728.553955078125,958.6359076499939 " class="st0"/>
    <polygon stroke="null" id="svg_16" points="1652.453857421875,965.3358588218689 1644.75390625,965.3358588218689 1644.75390625,958.6359076499939 1640.85400390625,958.6359076499939 1640.85400390625,975.6359076499939 1644.75390625,975.6359076499939 1644.75390625,968.6359076499939 1652.453857421875,968.6359076499939 1652.453857421875,975.6359076499939 1656.35400390625,975.6359076499939 1656.35400390625,958.6359076499939 1652.453857421875,958.6359076499939 " class="st0"/>
    <path stroke="null" id="svg_17" d="m1797.25383,958.63586l-7.4,0l0,17l3.9,0l0,-4.7l3.4,0c4.5,0 7.4,-2.4 7.4,-6.1c0.1,-3.9 -2.8,-6.2 -7.3,-6.2zm-0.2,9.1l-3.2,0l0,-5.9l3.2,0c2.4,0 3.6,1.1 3.6,3c0,1.8 -1.2,2.9 -3.6,2.9z" class="st0"/>
    <path stroke="null" id="svg_18" d="m1965.15383,965.23586l-4.7,0l0,-3.5l9.8,0l0,-3.1l-13.7,0l0,17l8.1,0c4.4,0 6.9,-2 6.9,-5.4c-0.1,-3.2 -2.3,-5 -6.4,-5zm-0.8,7.5l-3.9,0l0,-4.6l3.9,0c2.1,0 3.1,0.7 3.1,2.2c0,1.6 -1.1,2.4 -3.1,2.4z" class="st0"/>
    <path stroke="null" id="svg_19" d="m1920.25383,958.33586c-5.4,0 -9.3,3.7 -9.3,8.8c0,5.1 3.9,8.8 9.3,8.8c5.3,0 9.3,-3.7 9.3,-8.8s-3.9,-8.8 -9.3,-8.8zm0,14.2c-3,0 -5.3,-2.2 -5.3,-5.4s2.3,-5.4 5.3,-5.4s5.3,2.2 5.3,5.4s-2.2,5.4 -5.3,5.4z" class="st0"/>
    <polygon stroke="null" id="svg_20" points="1948.75390625,958.6359076499939 1942.453857421875,969.1359076499939 1936.15380859375,958.6359076499939 1932.85400390625,958.6359076499939 1932.85400390625,975.6359076499939 1936.553955078125,975.6359076499939 1936.553955078125,965.6359076499939 1941.553955078125,973.8358588218689 1943.35400390625,973.8358588218689 1948.35400390625,965.4359564781189 1948.35400390625,975.6359076499939 1952.053955078125,975.6359076499939 1952.053955078125,958.6359076499939 " class="st0"/>
    <polygon stroke="null" id="svg_21" points="1978.553955078125,969.7360053062439 1978.553955078125,958.6359076499939 1974.65380859375,958.6359076499939 1974.65380859375,975.6359076499939 1978.35400390625,975.6359076499939 1986.453857421875,964.5358099937439 1986.453857421875,975.6359076499939 1990.35400390625,975.6359076499939 1990.35400390625,958.6359076499939 1986.65380859375,958.6359076499939 " class="st0"/>
    <polygon stroke="null" id="svg_22" points="2006.453857421875,965.3358588218689 1998.75390625,965.3358588218689 1998.75390625,958.6359076499939 1994.85400390625,958.6359076499939 1994.85400390625,975.6359076499939 1998.75390625,975.6359076499939 1998.75390625,968.6359076499939 2006.453857421875,968.6359076499939 2006.453857421875,975.6359076499939 2010.453857421875,975.6359076499939 2010.453857421875,958.6359076499939 2006.453857421875,958.6359076499939 " class="st0"/>
    <polygon stroke="null" id="svg_23" points="2031.953857421875,958.6359076499939 2031.953857421875,961.8358588218689 2037.353759765625,961.8358588218689 2037.353759765625,975.6359076499939 2041.2537841796875,975.6359076499939 2041.2537841796875,961.8358588218689 2046.6536865234375,961.8358588218689 2046.6536865234375,958.6359076499939 " class="st0"/>
    <path stroke="null" id="svg_24" d="m2020.55383,958.63586l-7.6,17l4,0l1.5,-3.6l7.9,0l1.5,3.6l4.1,0l-7.6,-17l-3.8,0zm-0.8,10.4l2.7,-6.5l2.7,6.5l-5.4,0z" class="st0"/>
    <polygon stroke="null" id="svg_25" points="1909.953857421875,958.6359076499939 1905.85400390625,958.6359076499939 1901.35400390625,965.5358099937439 1898.553955078125,965.5358099937439 1898.553955078125,958.6359076499939 1894.65380859375,958.6359076499939 1894.65380859375,975.6359076499939 1898.553955078125,975.6359076499939 1898.553955078125,968.7360053062439 1901.25390625,968.7360053062439 1905.65380859375,975.6359076499939 1910.15380859375,975.6359076499939 1904.453857421875,966.8358588218689 " class="st0"/>
    <path stroke="null" id="svg_26" d="m1840.15383,966.73586c1.5,-0.7 2.4,-2 2.4,-3.7c0,-2.8 -2.3,-4.4 -6.3,-4.4l-7.9,0l0,17l8.4,0c4.3,0 6.6,-1.8 6.6,-4.8c0,-2.1 -1.1,-3.5 -3.2,-4.1zm-7.9,-5.2l3.7,0c1.7,0 2.6,0.7 2.6,2.1c0,1.4 -0.9,2.1 -2.6,2.1l-3.7,0l0,-4.2zm4.4,11.2l-4.3,0l0,-4.3l4.3,0c1.8,0 2.8,0.7 2.8,2.1c-0.1,1.5 -1,2.2 -2.8,2.2z" class="st0"/>
    <path stroke="null" id="svg_27" d="m1815.85383,958.33586c-5.4,0 -9.3,3.7 -9.3,8.8c0,5.1 3.9,8.8 9.3,8.8c5.3,0 9.3,-3.7 9.3,-8.8s-4,-8.8 -9.3,-8.8zm0,14.2c-3,0 -5.3,-2.2 -5.3,-5.4s2.3,-5.4 5.3,-5.4c3,0 5.3,2.2 5.3,5.4s-2.3,5.4 -5.3,5.4z" class="st0"/>
    <path stroke="null" id="svg_28" d="m1875.25383,957.53586c3.2,0 4.7,-1.3 4.7,-3.7l-2.7,0c0,1.2 -0.7,1.8 -2,1.8c-1.3,0 -2,-0.6 -2,-1.8l-2.7,0c0,2.4 1.5,3.7 4.7,3.7z" class="st0"/>
    <path stroke="null" id="svg_29" d="m1854.85383,958.33586c-5.4,0 -9.3,3.7 -9.3,8.8c0,5.1 3.9,8.8 9.3,8.8c5.3,0 9.3,-3.7 9.3,-8.8s-4,-8.8 -9.3,-8.8zm0,14.2c-3,0 -5.3,-2.2 -5.3,-5.4s2.3,-5.4 5.3,-5.4s5.3,2.2 5.3,5.4s-2.3,5.4 -5.3,5.4z" class="st0"/>
    <polygon stroke="null" id="svg_30" points="1871.35400390625,969.7360053062439 1871.35400390625,958.6359076499939 1867.453857421875,958.6359076499939 1867.453857421875,975.6359076499939 1871.15380859375,975.6359076499939 1879.25390625,964.5358099937439 1879.25390625,975.6359076499939 1883.15380859375,975.6359076499939 1883.15380859375,958.6359076499939 1879.453857421875,958.6359076499939 " class="st0"/>
   </g>
   <path stroke="null" id="svg_31" d="m264.75444,123.88332l6.94627,5.63193l-13.10986,10.72748l-13.01203,-10.72748l7.14194,-5.81072l0,-79.20455l6.16359,4.29099l5.96792,-4.29099l0,79.38335l-0.09783,0zm-6.16359,-83.85313l22.89334,-18.41551l-22.89334,-18.41551l-22.7955,18.41551l22.7955,18.41551zm126.59821,52.38586c0,0 -3.42422,12.06841 -15.36006,12.06841c-3.81556,0 -67.11466,0 -70.63672,0c-8.21812,0 -11.34884,-1.87731 -11.34884,-6.88347c0,-4.82737 0,-12.3366 0,-12.3366c0,-10.45929 22.2085,-14.30331 41.38411,-12.51539c16.14274,1.51973 34.24217,12.15781 34.24217,12.15781l0,-18.14732c0,-20.02463 -18.97995,-30.9309 -37.9599,-32.36123c-39.23175,-2.95006 -51.06976,17.34276 -51.06976,30.12634c0,3.21824 0,51.93888 0,51.93888c0,7.86682 8.12029,15.10787 17.90377,15.10787c4.7939,0 72.98475,0.0894 77.28948,0c7.23977,-0.17879 13.10986,-2.86066 17.02325,-7.95621c10.66399,-13.85633 -1.46752,-31.19909 -1.46752,-31.19909zm-142.05611,-31.02029c0,-24.7626 -31.11146,-29.67936 -60.07056,-25.92474c-19.27345,2.50308 -28.37209,-1.43033 -28.37209,-1.43033s-0.88051,27.89145 13.59904,38.88711c15.4579,11.80023 47.64554,4.46978 53.41779,3.66522c5.67442,-0.71517 7.92462,1.9667 7.92462,5.36374c0,4.0228 0.09783,11.35325 0.09783,14.21391c0,5.09555 -2.44587,8.3138 -7.14194,8.3138c0,0 -70.83238,0 -74.64794,0c-11.93584,0 -15.36006,-12.06841 -15.36006,-12.06841s-12.22935,17.43215 -1.46752,31.19909c3.91339,5.00616 9.78348,7.77742 17.02325,7.95621c4.30473,0.0894 71.81073,0 82.86606,0c6.4571,0 12.13151,-5.98951 12.13151,-13.05177l0,-57.12383z" class="st0"/>
  </g>
 </g>
</svg>